<svg width="25" height="29" viewBox="0 0 25 29" fill="none" xmlns="http://www.w3.org/2000/svg">
<g clip-path="url(#clip0_99_29)">
<path d="M22.3214 1.78656H2.67857C1.96817 1.78656 1.28686 2.0689 0.784535 2.57147C0.282206 3.07403 0 3.75566 0 4.46639L0 24.1185C0 24.8293 0.282206 25.5109 0.784535 26.0134C1.28686 26.516 1.96817 26.7984 2.67857 26.7984H10.3376V18.2949H6.82199V14.2925H10.3376V11.2419C10.3376 7.77208 12.4023 5.85544 15.5647 5.85544C17.0792 5.85544 18.6629 6.12566 18.6629 6.12566V9.53128H16.918C15.1987 9.53128 14.6624 10.5988 14.6624 11.6936V14.2925H18.5006L17.8867 18.2949H14.6624V26.7984H22.3214C23.0318 26.7984 23.7131 26.516 24.2155 26.0134C24.7178 25.5109 25 24.8293 25 24.1185V4.46639C25 3.75566 24.7178 3.07403 24.2155 2.57147C23.7131 2.0689 23.0318 1.78656 22.3214 1.78656Z" fill="white"/>
</g>
<defs>
<clipPath id="clip0_99_29">
<rect width="25" height="28.5849" fill="white"/>
</clipPath>
</defs>
</svg>
