<svg width="24" height="24" viewBox="0 0 24 24" fill="none" xmlns="http://www.w3.org/2000/svg">
<path d="M22 8.99999V15C22 17.5 21.5 19.25 20.38 20.38L14 14L21.73 6.26999C21.91 7.05999 22 7.95999 22 8.99999Z" stroke="#F6F6F6" stroke-width="1.5" stroke-linecap="round" stroke-linejoin="round"/>
<path d="M21.73 6.27L6.27 21.73C3.26 21.04 2 18.96 2 15V9C2 4 4 2 9 2H15C18.96 2 21.04 3.26 21.73 6.27Z" stroke="#F6F6F6" stroke-width="1.5" stroke-linecap="round" stroke-linejoin="round"/>
<path d="M20.38 20.38C19.25 21.5 17.5 22 15 22H9.00002C7.96002 22 7.06002 21.91 6.27002 21.73L14 14L20.38 20.38Z" stroke="#F6F6F6" stroke-width="1.5" stroke-linecap="round" stroke-linejoin="round"/>
<path d="M6.24002 7.98C6.92002 5.05 11.32 5.05 12 7.98C12.39 9.7 11.31 11.16 10.36 12.06C10.0255 12.378 9.58156 12.5552 9.12002 12.5552C8.65848 12.5552 8.21457 12.378 7.88002 12.06C6.93002 11.16 5.84002 9.7 6.24002 7.98Z" stroke="#F6F6F6" stroke-width="1.5"/>
<path d="M9.09497 8.70001H9.10397" stroke="#F6F6F6" stroke-width="2" stroke-linecap="round" stroke-linejoin="round"/>
</svg>
