<svg width="213" height="44" viewBox="0 0 213 44" fill="none" xmlns="http://www.w3.org/2000/svg">
<path d="M44.728 43.12C44.12 43.12 43.556 43.012 43.036 42.796C42.524 42.572 42.076 42.264 41.692 41.872C41.308 41.472 41.012 41.012 40.804 40.492C40.596 39.964 40.492 39.4 40.492 38.8C40.492 38.2 40.596 37.64 40.804 37.12C41.012 36.592 41.308 36.132 41.692 35.74C42.076 35.348 42.524 35.04 43.036 34.816C43.556 34.592 44.12 34.48 44.728 34.48C45.408 34.48 45.996 34.592 46.492 34.816C46.988 35.04 47.428 35.344 47.812 35.728L46.876 36.664C46.628 36.392 46.324 36.18 45.964 36.028C45.612 35.876 45.2 35.8 44.728 35.8C44.312 35.8 43.932 35.872 43.588 36.016C43.244 36.16 42.944 36.368 42.688 36.64C42.44 36.904 42.248 37.22 42.112 37.588C41.976 37.956 41.908 38.36 41.908 38.8C41.908 39.24 41.976 39.644 42.112 40.012C42.248 40.38 42.44 40.7 42.688 40.972C42.944 41.236 43.244 41.44 43.588 41.584C43.932 41.728 44.312 41.8 44.728 41.8C45.24 41.8 45.672 41.724 46.024 41.572C46.384 41.412 46.688 41.196 46.936 40.924L47.872 41.86C47.488 42.252 47.036 42.56 46.516 42.784C45.996 43.008 45.4 43.12 44.728 43.12ZM49.1034 43V34.6H50.4834V43H49.1034ZM50.0514 43V41.74H54.7554V43H50.0514ZM50.0514 39.316V38.104H54.3474V39.316H50.0514ZM50.0514 35.86V34.6H54.6954V35.86H50.0514ZM56.1815 43V34.6H57.1415L57.5615 36.184V43H56.1815ZM62.0015 43L56.9735 36.436L57.1415 34.6L62.1695 41.164L62.0015 43ZM62.0015 43L61.5815 41.524V34.6H62.9615V43H62.0015ZM66.8951 43V34.84H68.2751V43H66.8951ZM64.1591 35.86V34.6H71.0111V35.86H64.1591ZM73.1608 39.436V38.296H75.2848C75.7088 38.296 76.0368 38.188 76.2688 37.972C76.5088 37.748 76.6288 37.44 76.6288 37.048C76.6288 36.696 76.5128 36.4 76.2808 36.16C76.0488 35.92 75.7208 35.8 75.2968 35.8H73.1608V34.6H75.3568C75.8848 34.6 76.3488 34.708 76.7488 34.924C77.1488 35.132 77.4568 35.42 77.6728 35.788C77.8968 36.148 78.0088 36.56 78.0088 37.024C78.0088 37.512 77.8968 37.936 77.6728 38.296C77.4568 38.656 77.1488 38.936 76.7488 39.136C76.3488 39.336 75.8848 39.436 75.3568 39.436H73.1608ZM72.2128 43V34.6H73.5928V43H72.2128ZM76.8208 43L73.8808 39.352L75.1648 38.884L78.5608 43H76.8208ZM83.3424 43.12C82.7424 43.12 82.1824 43.008 81.6624 42.784C81.1424 42.56 80.6864 42.252 80.2944 41.86C79.9024 41.46 79.5944 41 79.3704 40.48C79.1544 39.952 79.0464 39.388 79.0464 38.788C79.0464 38.188 79.1544 37.628 79.3704 37.108C79.5944 36.588 79.8984 36.132 80.2824 35.74C80.6744 35.34 81.1264 35.032 81.6384 34.816C82.1584 34.592 82.7184 34.48 83.3184 34.48C83.9184 34.48 84.4744 34.592 84.9864 34.816C85.5064 35.032 85.9624 35.34 86.3544 35.74C86.7464 36.132 87.0504 36.592 87.2664 37.12C87.4904 37.64 87.6024 38.2 87.6024 38.8C87.6024 39.4 87.4904 39.964 87.2664 40.492C87.0504 41.012 86.7464 41.468 86.3544 41.86C85.9704 42.252 85.5184 42.56 84.9984 42.784C84.4864 43.008 83.9344 43.12 83.3424 43.12ZM83.3184 41.8C83.8864 41.8 84.3824 41.672 84.8064 41.416C85.2384 41.16 85.5744 40.808 85.8144 40.36C86.0624 39.904 86.1864 39.38 86.1864 38.788C86.1864 38.348 86.1144 37.948 85.9704 37.588C85.8344 37.22 85.6384 36.904 85.3824 36.64C85.1264 36.368 84.8224 36.16 84.4704 36.016C84.1264 35.872 83.7424 35.8 83.3184 35.8C82.7584 35.8 82.2624 35.928 81.8304 36.184C81.4064 36.432 81.0704 36.78 80.8224 37.228C80.5824 37.676 80.4624 38.196 80.4624 38.788C80.4624 39.228 80.5304 39.636 80.6664 40.012C80.8104 40.38 81.0064 40.696 81.2544 40.96C81.5104 41.224 81.8144 41.432 82.1664 41.584C82.5184 41.728 82.9024 41.8 83.3184 41.8ZM90.4443 43L93.9003 34.6H94.8603L98.2923 43H96.8043L94.1163 36.196H94.6203L91.9083 43H90.4443ZM92.1483 41.38V40.18H96.6003V41.38H92.1483ZM102.547 43.12C101.915 43.12 101.347 42.976 100.843 42.688C100.339 42.4 99.9385 42.008 99.6425 41.512C99.3545 41.008 99.2105 40.44 99.2105 39.808V34.6H100.591V39.796C100.591 40.204 100.675 40.56 100.843 40.864C101.019 41.16 101.255 41.392 101.551 41.56C101.847 41.72 102.179 41.8 102.547 41.8C102.923 41.8 103.255 41.72 103.543 41.56C103.831 41.392 104.059 41.16 104.227 40.864C104.395 40.56 104.479 40.208 104.479 39.808V34.6H105.859V39.82C105.859 40.452 105.715 41.016 105.427 41.512C105.139 42.008 104.747 42.4 104.251 42.688C103.755 42.976 103.187 43.12 102.547 43.12ZM109.598 43V34.84H110.978V43H109.598ZM106.862 35.86V34.6H113.714V35.86H106.862ZM118.217 43.12C117.617 43.12 117.057 43.008 116.537 42.784C116.017 42.56 115.561 42.252 115.169 41.86C114.777 41.46 114.469 41 114.245 40.48C114.029 39.952 113.921 39.388 113.921 38.788C113.921 38.188 114.029 37.628 114.245 37.108C114.469 36.588 114.773 36.132 115.157 35.74C115.549 35.34 116.001 35.032 116.513 34.816C117.033 34.592 117.593 34.48 118.193 34.48C118.793 34.48 119.349 34.592 119.861 34.816C120.381 35.032 120.837 35.34 121.229 35.74C121.621 36.132 121.925 36.592 122.141 37.12C122.365 37.64 122.477 38.2 122.477 38.8C122.477 39.4 122.365 39.964 122.141 40.492C121.925 41.012 121.621 41.468 121.229 41.86C120.845 42.252 120.393 42.56 119.873 42.784C119.361 43.008 118.809 43.12 118.217 43.12ZM118.193 41.8C118.761 41.8 119.257 41.672 119.681 41.416C120.113 41.16 120.449 40.808 120.689 40.36C120.937 39.904 121.061 39.38 121.061 38.788C121.061 38.348 120.989 37.948 120.845 37.588C120.709 37.22 120.513 36.904 120.257 36.64C120.001 36.368 119.697 36.16 119.345 36.016C119.001 35.872 118.617 35.8 118.193 35.8C117.633 35.8 117.137 35.928 116.705 36.184C116.281 36.432 115.945 36.78 115.697 37.228C115.457 37.676 115.337 38.196 115.337 38.788C115.337 39.228 115.405 39.636 115.541 40.012C115.685 40.38 115.881 40.696 116.129 40.96C116.385 41.224 116.689 41.432 117.041 41.584C117.393 41.728 117.777 41.8 118.193 41.8ZM123.881 43V34.6H124.841L128.333 40.348H127.709L131.201 34.6H132.161V43H130.781V37.024L131.093 37.108L128.501 41.368H127.541L124.949 37.108L125.261 37.024V43H123.881ZM137.846 43.12C137.246 43.12 136.686 43.008 136.166 42.784C135.646 42.56 135.19 42.252 134.798 41.86C134.406 41.46 134.098 41 133.874 40.48C133.658 39.952 133.55 39.388 133.55 38.788C133.55 38.188 133.658 37.628 133.874 37.108C134.098 36.588 134.402 36.132 134.786 35.74C135.178 35.34 135.63 35.032 136.142 34.816C136.662 34.592 137.222 34.48 137.822 34.48C138.422 34.48 138.978 34.592 139.49 34.816C140.01 35.032 140.466 35.34 140.858 35.74C141.25 36.132 141.554 36.592 141.77 37.12C141.994 37.64 142.106 38.2 142.106 38.8C142.106 39.4 141.994 39.964 141.77 40.492C141.554 41.012 141.25 41.468 140.858 41.86C140.474 42.252 140.022 42.56 139.502 42.784C138.99 43.008 138.438 43.12 137.846 43.12ZM137.822 41.8C138.39 41.8 138.886 41.672 139.31 41.416C139.742 41.16 140.078 40.808 140.318 40.36C140.566 39.904 140.69 39.38 140.69 38.788C140.69 38.348 140.618 37.948 140.474 37.588C140.338 37.22 140.142 36.904 139.886 36.64C139.63 36.368 139.326 36.16 138.974 36.016C138.63 35.872 138.246 35.8 137.822 35.8C137.262 35.8 136.766 35.928 136.334 36.184C135.91 36.432 135.574 36.78 135.326 37.228C135.086 37.676 134.966 38.196 134.966 38.788C134.966 39.228 135.034 39.636 135.17 40.012C135.314 40.38 135.51 40.696 135.758 40.96C136.014 41.224 136.318 41.432 136.67 41.584C137.022 41.728 137.406 41.8 137.822 41.8ZM145.059 43V34.84H146.439V43H145.059ZM142.323 35.86V34.6H149.175V35.86H142.323ZM150.377 43V34.6H151.757V43H150.377ZM156.348 43L152.952 34.6H154.452L157.104 41.404H156.576L159.252 34.6H160.728L157.308 43H156.348ZM165.362 43.12C164.762 43.12 164.202 43.008 163.682 42.784C163.162 42.56 162.706 42.252 162.314 41.86C161.922 41.46 161.614 41 161.39 40.48C161.174 39.952 161.066 39.388 161.066 38.788C161.066 38.188 161.174 37.628 161.39 37.108C161.614 36.588 161.918 36.132 162.302 35.74C162.694 35.34 163.146 35.032 163.658 34.816C164.178 34.592 164.738 34.48 165.338 34.48C165.938 34.48 166.494 34.592 167.006 34.816C167.526 35.032 167.982 35.34 168.374 35.74C168.766 36.132 169.07 36.592 169.286 37.12C169.51 37.64 169.622 38.2 169.622 38.8C169.622 39.4 169.51 39.964 169.286 40.492C169.07 41.012 168.766 41.468 168.374 41.86C167.99 42.252 167.538 42.56 167.018 42.784C166.506 43.008 165.954 43.12 165.362 43.12ZM165.338 41.8C165.906 41.8 166.402 41.672 166.826 41.416C167.258 41.16 167.594 40.808 167.834 40.36C168.082 39.904 168.206 39.38 168.206 38.788C168.206 38.348 168.134 37.948 167.99 37.588C167.854 37.22 167.658 36.904 167.402 36.64C167.146 36.368 166.842 36.16 166.49 36.016C166.146 35.872 165.762 35.8 165.338 35.8C164.778 35.8 164.282 35.928 163.85 36.184C163.426 36.432 163.09 36.78 162.842 37.228C162.602 37.676 162.482 38.196 162.482 38.788C162.482 39.228 162.55 39.636 162.686 40.012C162.83 40.38 163.026 40.696 163.274 40.96C163.53 41.224 163.834 41.432 164.186 41.584C164.538 41.728 164.922 41.8 165.338 41.8Z" fill="white"/>
<path d="M5.96046e-08 -1.90735e-06H4.56L12.8 7.76V13.8L5.04 6.48V23H5.96046e-08V-1.90735e-06ZM27.56 -1.90735e-06H23.04L14.76 7.76V13.8L22.52 6.48V23H27.56V-1.90735e-06ZM34.7469 -1.90735e-06V20.28L39.3069 23H47.5469V18.32H39.7869V-1.90735e-06H34.7469ZM62.3069 -1.90735e-06V20.28L57.7869 23H49.5069V18.32H57.2669V-1.90735e-06H62.3069ZM69.4922 -1.90735e-06H74.0522L82.2922 7.76V13.8L74.5322 6.32V23H69.4922V-1.90735e-06ZM92.0122 16.52V-1.90735e-06H97.0522V23H92.3322L84.0922 15.08V9.24L92.0122 16.52ZM105.039 -1.90735e-06H117.839V4.52H110.079V18.32H117.839V23H105.039V-1.90735e-06ZM132.599 2.76L128.079 -1.90735e-06H119.799V4.52H127.559V18.32H119.799V23H128.079L132.599 20.28V2.76ZM139.005 -1.90735e-06H144.045V23H139.005V-1.90735e-06ZM150.45 2.76V23H155.49V13.8H163.25V9.24H155.49V4.52H163.25V-1.90735e-06H155.01L150.45 2.76ZM178.01 2.76V23H172.97V13.8H165.05V9.24H172.97V4.52H165.05V-1.90735e-06H173.29L178.01 2.76ZM185.195 -1.90735e-06H190.235V18.32H197.835V23H185.195V-1.90735e-06ZM199.955 18.32V23H212.755V18.32H199.955Z" fill="#05B0F0"/>
</svg>
