<svg width="25" height="29" viewBox="0 0 25 29" fill="none" xmlns="http://www.w3.org/2000/svg">
<path d="M21.2556 5.43265C18.9174 3.08279 15.8036 1.79037 12.4944 1.79037C5.66406 1.79037 0.106027 7.36288 0.106027 14.211C0.106027 16.3986 0.675223 18.5359 1.75781 20.4214L0 26.8555L6.56808 25.1267C8.37612 26.117 10.4129 26.6373 12.4888 26.6373H12.4944C19.3192 26.6373 25 21.0648 25 14.2166C25 10.8989 23.5938 7.7825 21.2556 5.43265ZM12.4944 24.5448C10.6417 24.5448 8.82812 24.0468 7.24888 23.1069L6.875 22.8831L2.97991 23.907L4.01786 20.0969L3.77232 19.7052C2.73996 18.0603 2.19866 16.1636 2.19866 14.211C2.19866 8.52103 6.8192 3.88846 12.5 3.88846C15.2511 3.88846 17.8348 4.96268 19.7768 6.91529C21.7188 8.86791 22.9129 11.4583 22.9074 14.2166C22.9074 19.9122 18.1696 24.5448 12.4944 24.5448ZM18.1417 16.8127C17.8348 16.656 16.3114 15.9063 16.0268 15.8056C15.7422 15.6993 15.5357 15.6489 15.3292 15.9622C15.1228 16.2755 14.5312 16.9693 14.3471 17.1819C14.1685 17.3889 13.9844 17.4169 13.6775 17.2602C11.8583 16.3483 10.6641 15.6321 9.46429 13.5676C9.14621 13.0193 9.78237 13.0585 10.3739 11.8724C10.4743 11.6654 10.4241 11.4863 10.346 11.3297C10.2679 11.173 9.64844 9.6456 9.39174 9.02457C9.14062 8.42032 8.88393 8.50424 8.6942 8.49305C8.51562 8.48186 8.30915 8.48186 8.10268 8.48186C7.8962 8.48186 7.56138 8.56019 7.27679 8.86791C6.99219 9.18122 6.1942 9.93094 6.1942 11.4583C6.1942 12.9857 7.30469 14.4628 7.45536 14.6698C7.61161 14.8768 9.63728 18.01 12.7455 19.3583C14.7098 20.2087 15.4799 20.2815 16.4621 20.136C17.0592 20.0465 18.2924 19.3863 18.5491 18.659C18.8058 17.9316 18.8058 17.3106 18.7277 17.1819C18.6551 17.042 18.4487 16.9637 18.1417 16.8127Z" fill="white"/>
</svg>
